{"title":"Sta dixtya tou pepromenou S02E16 Gr Subs","uid":13380975,"size":1406770442,"categoryP":"video","categoryS":"tv_shows","magnet":"?xt=urn:btih:c6a803806fc10eb17c04430049c0a4aca3c5af08&amp;dn=Sta+dixtya+tou+pepromenou+S02E16+Gr+Subs&amp;tr=udp%3A%2F%2Ftracker.leechers-paradise.org%3A6969&amp;tr=udp%3A%2F%2Fzer0day.ch%3A1337&amp;tr=udp%3A%2F%2Fopen.demonii.com%3A1337&amp;tr=udp%3A%2F%2Ftracker.coppersurfer.tk%3A6969&amp;tr=udp%3A%2F%2Fexodus.desync.com%3A6969","seeders":0,"leechers":0,"uploader":"Aris2015","files":1,"time":1454278194,"description":"Î‘Ï…Ï„ÏŒ Î¤Î¿ Î‘ÏÏ‡ÎµÎ¯Î¿ Î Î¿Ï… ÎšÎ±Ï„ÎµÎ²Î¬ÏƒÎ±Ï„Îµ Î¤ÏŽÏÎ±, Î£Î¯Î³Î¿Ï…ÏÎ± Î˜Î± Î¸Î­Î»Î¿Ï…Î½ ÎÎ± Î¤Î¿ ÎšÎ±Ï„ÎµÎ²Î¬ÏƒÎ¿Ï…Î½ ÎšÎ¹ Î‘Î»Î»Î¿Î¹ Î§ÏÎ®ÏƒÏ„ÎµÏ‚! Î“Î¹Î± ÎÎ± Î“Î¯Î½ÎµÎ¹ Î‘Ï…Ï„ÏŒ...Î”ÎµÎ½ Î ÏÎ­Ï€ÎµÎ¹ ÎÎ± Î£Ï„Î±Î¼Î±Ï„Î¬Î¼Îµ Î‘Ï…Ï„Î¬ Î Î¿Ï… ÎšÎ±Ï„ÎµÎ²Î¬ÏƒÎ±Î¼Îµ ÎœÎ­Ï‡ÏÎ¹ ÎÎ± Î”ÏŽÏƒÎ¿Ï…Î¼Îµ Î Î¯ÏƒÏ‰ Î‘Ï…Ï„Î¬ Î Î¿Ï… Î Î®ÏÎ±Î¼Îµ,Î— ÎšÎ±Î¹ Î Î±ÏÎ±Ï€Î¬Î½Ï‰! ÎœÎ·Î½ ÎžÎµÏ‡Î½Î¬Î¼Îµ ÎŸÏ„Î¹ Î“Î¹Î± ÎÎ± ÎœÏ€Î¿ÏÎ¿ÏÎ¼Îµ ÎÎ± ÎšÎ±Ï„ÎµÎ²Î¬Î¶Î¿Ï…Î¼Îµ ÎœÎµ ÎšÎ±Î»Î­Ï‚ Î¤Î±Ï‡ÏÏ„Î·Ï„ÎµÏ‚ Î ÏÎ­Ï€ÎµÎ¹ ÎŸÎ»Î¿Î¹ ÎÎ± Î’Î¿Î·Î¸Î¬Î¼Îµ Î£Ï„Î¿Î½ Î”Î¹Î±Î¼Î¿Î¹ÏÎ±ÏƒÎ¼ÏŒ Î¤Î¿Î½ Î‘ÏÏ‡ÎµÎ¯Ï‰Î½, Î‘Î»Î»Î¬ ÎšÎ±Î¹ Î“Î¹Î± ÎÎ± ÎœÏ€Î¿ÏÎµÎ¯ Î•Î½Î±Ï‚ uploader ÎÎ± Î‘Î½ÎµÎ²Î¬Î¶ÎµÎ¹ ÎšÎ±Î¹ ÎÎ­Î± Î‘ÏÏ‡ÎµÎ¯Î± Î˜Î­Î»ÎµÎ¹ Ï„Î·Î½ Î’Î¿Î®Î¸ÎµÎ¹Î± \r\nÎŸÎ»Ï‰Î½ ÎœÎ±Ï‚ Î£Ï„Î¿Î½ Î”Î¹Î±Î¼Î¿Î¹ÏÎ±ÏƒÎ¼ÏŒ Î¤Î¿Ï…Ï‚. Î•Ï…Ï‡Î±ÏÎ¹ÏƒÏ„Î¿ÏÎ¼Îµ Î³Î¹Î± Ï„Î·Î½ ÎºÎ±Ï„Î±Î½ÏŒÎ·ÏƒÎ· ÏƒÎ±Ï‚!\r\n\r\n\r\n\r\nGeneral\r\nComplete name               : Sta.dixtya.tou.pepromenou.S02E16 Gr Subs.avi\r\nFormat                      : AVI\r\nFormat/Info                 : Audio Video Interleave\r\nFile size                   : 1.31 GiB\r\nDuration                    : 1h 32mn\r\nOverall bit rate            : 2 037 Kbps\r\n\r\nVideo\r\nID                          : 0\r\nFormat                      : AVC\r\nFormat/Info                 : Advanced Video Codec\r\nFormat profile              :   \r\nFormat settings, CABAC      : Yes\r\nFormat settings, ReFrames   : 2 frames\r\nCodec ID                    : H264\r\nDuration                    : 1h 32mn\r\nBit rate                    : 1 899 Kbps\r\nWidth                       : 1 024 pixels\r\nHeight                      : 576 pixels\r\nDisplay aspect ratio        : 16:9\r\nFrame rate                  : 25.000 fps\r\nColor space                 : YUV\r\nChroma subsampling          : 4:2:0\r\nBit depth                   : 8 bits\r\nScan type                   : Progressive\r\nBits/(Pixel*Frame)          : 0.129\r\nStream size                 : 1.22 GiB (93%)\r\n\r\nAudio\r\nID                          : 1\r\nFormat                      : MPEG Audio\r\nFormat version              : Version 1\r\nFormat profile              : Layer 3\r\nCodec ID                    : 55\r\nCodec ID/Hint               : MP3\r\nDuration                    : 1h 32mn\r\nBit rate mode               : Constant\r\nBit rate                    : 128 Kbps\r\nChannel(s)                  : 2 channels\r\nSampling rate               : 44.1 KHz\r\nCompression mode            : Lossy\r\nStream size                 : 84.3 MiB (6%)\r\nAlignment                   : Split accross interleaves\r\nInterleave, duration        : 40 ms (1.00 video frame)\r\nInterleave, preload duratio : 232 ms","torrent":{"xt":"urn:btih:c6a803806fc10eb17c04430049c0a4aca3c5af08","amp;dn":"Sta+dixtya+tou+pepromenou+S02E16+Gr+Subs","amp;tr":["udp%3A%2F%2Ftracker.leechers-paradise.org%3A6969","udp%3A%2F%2Fzer0day.ch%3A1337","udp%3A%2F%2Fopen.demonii.com%3A1337","udp%3A%2F%2Ftracker.coppersurfer.tk%3A6969","udp%3A%2F%2Fexodus.desync.com%3A6969"],"infoHash":"c6a803806fc10eb17c04430049c0a4aca3c5af08","infoHashBuffer":{"type":"Buffer","data":[198,168,3,128,111,193,14,177,124,4,67,0,73,192,164,172,163,197,175,8]},"announce":[],"urlList":[]}}